<?xml version="1.0" encoding="UTF-8"?>
<svg id="Layer_1" xmlns="http://www.w3.org/2000/svg" xmlns:xlink="http://www.w3.org/1999/xlink" viewBox="0 0 140 90">
  <defs>
    <style>
      .cls-1 {
        fill: none;
      }

      .cls-2 {
        fill: #231f20;
      }

      .cls-3 {
        fill: #fcbb30;
      }
    </style>
    <clipPath id="clippath">
      <rect class="cls-1" x="-67" y="56" width="272.67" height="204.5"/>
    </clipPath>
  </defs>
  <path class="cls-2" d="M62.7,70.29c-3.18,0-5.75,2.57-5.75,5.75v4.57c0,.58.45,1.04,1.02,1.07h1.15v-5.64c0-1.98,1.6-3.57,3.57-3.57,1.51,0,2.8.93,3.32,2.26h2.27c-.59-2.54-2.87-4.44-5.59-4.44"/>
  <path class="cls-2" d="M37.06,72.47c1.51,0,2.81.94,3.33,2.27h-6.66c.52-1.33,1.81-2.27,3.33-2.27M42.42,76.84h.32c.04-.26.06-.52.06-.79,0-3.18-2.58-5.75-5.75-5.75s-5.75,2.57-5.75,5.75,2.57,5.75,5.75,5.75c2.59,0,4.78-1.71,5.5-4.07h-2.34c-.6,1.13-1.79,1.9-3.16,1.9-1.7,0-3.12-1.19-3.49-2.79h8.85"/>
  <path class="cls-2" d="M104.13,72.47c1.51,0,2.81.94,3.33,2.27h-6.66c.52-1.33,1.81-2.27,3.33-2.27M109.49,76.84h.33c.03-.26.06-.52.06-.79,0-3.18-2.58-5.75-5.75-5.75s-5.75,2.57-5.75,5.75,2.57,5.75,5.75,5.75c2.59,0,4.78-1.71,5.5-4.07h-2.34c-.6,1.13-1.79,1.9-3.16,1.9-1.7,0-3.13-1.19-3.49-2.79h8.85"/>
  <path class="cls-2" d="M91.42,79.62c-1.97,0-3.58-1.6-3.58-3.58s1.6-3.58,3.58-3.58,3.58,1.6,3.58,3.58-1.6,3.58-3.58,3.58M97.17,76.04c0-3.18-2.57-5.75-5.75-5.75s-5.75,2.57-5.75,5.75,2.57,5.75,5.75,5.75c1.36,0,2.61-.47,3.59-1.26v.71c0,1.97-1.6,3.58-3.58,3.58-1.51,0-2.8-.94-3.32-2.26h-2.27c.6,2.54,2.87,4.44,5.6,4.44,3.18,0,5.75-2.58,5.74-5.75v-5.13s0-.05,0-.08"/>
  <path class="cls-2" d="M71.51,67.84c0,.6-.49,1.09-1.09,1.09s-1.09-.49-1.09-1.09.49-1.09,1.09-1.09,1.09.49,1.09,1.09"/>
  <path class="cls-2" d="M84.51,76.04c0-3.18-2.57-5.75-5.74-5.75s-5.75,2.57-5.75,5.75v4.55c0,.6.49,1.09,1.09,1.09h1.07v-5.64c.01-1.98,1.61-3.58,3.59-3.58s3.57,1.6,3.57,3.58v4.55c0,.6.49,1.09,1.09,1.09h1.09v-5.64"/>
  <path class="cls-2" d="M116.82,70.29c-3.17,0-5.75,2.57-5.75,5.75v4.6c.02.58.49,1.05,1.08,1.05h1.09v-5.64c0-1.98,1.6-3.57,3.58-3.57,1.51,0,2.81.93,3.33,2.26h2.27c-.6-2.54-2.87-4.44-5.6-4.44"/>
  <path class="cls-2" d="M24.38,79.62c-1.97,0-3.58-1.6-3.58-3.58s1.6-3.58,3.58-3.58,3.58,1.6,3.58,3.58-1.6,3.58-3.58,3.58M24.38,70.29c-1.38,0-2.65.49-3.65,1.31v-4.42h0c0-.6-.49-1.08-1.09-1.08h0s-1,0-1,0v9.86s0,.06,0,.09c0,3.18,2.58,5.75,5.75,5.75s5.75-2.57,5.75-5.75-2.57-5.75-5.75-5.75"/>
  <path class="cls-2" d="M69.33,70.37v10.23c0,.6.49,1.08,1.09,1.08h0s1.09,0,1.09,0v-11.32h-2.18"/>
  <path class="cls-2" d="M49.75,70.29c-1.35,0-2.59.47-3.57,1.25v-4.37c0-.6-.49-1.08-1.09-1.08h-1.09v14.52c0,.6.49,1.09,1.09,1.09h1.09v-5.84c.1-1.89,1.65-3.39,3.57-3.39s3.58,1.6,3.58,3.57v4.57c0,.58.45,1.04,1.03,1.08h1.14v-5.64c0-3.18-2.57-5.75-5.74-5.75"/>
  <path class="cls-3" d="M66.1,5.97l-32.82,44.76-.27.36-.2.4c-1.24,2.3-.63,5.17,1.33,6.87l.37.27.36.27.4.2c.86.44,1.59.59,2.55.63h65.4l.46-.04c.8,0,2.25-.52,2.85-1.06l.36-.27.33-.3.3-.33.26-.33.23-.4.23-.36c.37-.8.63-1.67.6-2.56v-.46l-.07-.43-.06-.43-.13-.43-.17-.43-.17-.4-.23-.37-.23-.37L74.92,5.64l-.3-.33-.33-.3c-1.91-1.67-4.95-1.79-6.97-.26l-.33.26-.33.3-.3.33-.26.33h0Z"/>
  <path class="cls-2" d="M108.19,54.46l-.12.76-.1.34-.3.76c-.82,1.67-2.61,2.73-4.46,2.72H37.85l-.82-.06c-1.82-.3-3.41-1.63-3.94-3.41l-.11-.35-.12-.76v-.79l.05-.37.18-.77.14-.36.36-.72L66.63,6.39l.23-.3.28-.31.27-.25.63-.48.7-.35.76-.24.76-.12h.76l.79.12.35.11.72.3.67.41.58.49.26.28,32.84,45.07.43.68.29.72.12.38.12.77v.79h0ZM109.41,52.66l-.18-.58-.34-.84-.54-.87L75.47,5.24l-.34-.39-.41-.37-.33-.26-.84-.52-.88-.37-.48-.15-1.01-.16h-.96s-.97.13-.97.13l-.96.29-.9.44-.85.63-.33.3-.38.42-.28.35-32.82,44.76-.27.36-.46.89-.19.49-.24.97-.07.47v.99s.13.96.13.96l.16.53c.84,2.61,3.23,4.36,5.97,4.39h65.49s.92-.06.92-.06c2.39-.39,4.35-2,5.08-4.33l.14-.43.15-.96v-1s-.13-.96-.13-.96h0Z"/>
  <path class="cls-2" d="M69.81,23.03c-2.69.89-5.52,2.75-5.95,3.04,0,0,0,0-.01,0-.01,0-.02.02-.03.02,0,0-.01.01-.01.01-.13.1-.19.25-.13.34.06.1.22.1.37.03h0s2.25-1.54,4.92-2.31c1.88-.55,3.97-.69,5.62.26,4.39,2.52,2.14,10.09-1.34,15.12-2,2.89-4.91,6-8.17,8.11-2.51,1.62-4.94,2.74-7.78,2.75-5.85.02-5.22-6.5-5.22-6.5h0s0-.01,0-.02c.02-.19-.04-.36-.13-.36-.09-.01-.18.13-.2.33,0,.01,0,.02,0,.03h0c-.07.95-.65,4.52,2.42,6.98,1.13.91,2.45,1.22,3.72,1.29,1.71.1,3.51-.26,4.45-.53,1.33-.38,3.26-1.11,6.03-2.93,2.43-1.6,5.06-3.93,7.07-6.27,2.77-3.21,5.47-8,5.74-11.92.69-9.9-8.07-8.56-11.37-7.46"/>
  <path class="cls-2" d="M54.36,41.21c.58-.1,1.37-.28,2.28-.65,1.26-.51,3.78-1.82,6.15-4.07,1.88-1.79,3.08-3.82,3.03-5.44-.06-2.28-2.57-2.29-3.55-2.2-.24.02-.45.14-.57.3-1.14,1.66-7.58,11.03-7.84,11.41-.32.44-.14.76.5.65"/>
</svg>