<?xml version="1.0" encoding="UTF-8"?>
<svg id="Layer_1" xmlns="http://www.w3.org/2000/svg" viewBox="0 0 140 90">
  <defs>
    <style>
      .cls-1 {
        fill: #231f20;
      }
    </style>
  </defs>
  <path class="cls-1" d="M126.97,51.45c-.28.09-.85.38-1.61.85-.76.47-1.51.38-2.27-.28-.47-.76-.28-1.61.38-2.65l1.89-2.46c.28-.76-.09-1.32-1.04-1.99-1.04-.66-1.89-1.32-2.74-2.27-.28-.76-.28-1.7,0-2.93.28-1.23-.19-2.18-1.42-2.74-.57-.19-1.32.19-2.18,1.14-.76,1.04-1.04,2.74-.66,5.2-.95,2.74-3.03,5.49-6.24,8.14-3.22,2.65-5.3,3.31-6.24,1.89-.38-1.14.57-1.99,2.74-2.74,1.8-.47,2.74-1.04,2.93-1.89.19-.76-.28-1.23-1.23-1.42l-3.31-.38-3.69-.76c-1.32-.66-1.23-1.42.38-1.89l5.68.38c1.7-.1,2.84-.57,3.41-1.51.66-1.04.85-1.99.76-2.93l-4.16.76-3.59.28c-1.7-.09-3.41.19-4.92.76-1.61.66-2.46,1.61-2.55,3.12.1,1.42.76,2.37,2.08,2.84,1.32.57,2.46.95,3.59,1.23.57.19.66.47.38.85-1.23.57-2.27,1.7-3.03,3.12,0,2.46,1.42,3.78,4.35,3.97,3.59.19,7.28-1.8,10.97-5.87l2.93-4.35c.28-.38.57-.47.95-.38.76.09,1.23.57,1.42,1.23l-1.42,3.03c-.76,1.23-.66,2.46.19,3.5,1.7,1.7,3.88,1.8,6.72.47,1.8-1.89,1.99-3.03.57-3.31Z"/>
  <path class="cls-1" d="M77.68,43.13c-1.61-1.04-3.12-.85-4.64.38-1.51,1.23-2.74,2.74-3.88,4.45-.95,1.04-1.61.66-2.08-1.04-.47-.85-1.32-1.13-2.74-.85-1.51.38-2.84.85-3.97,1.42-1.99,1.23-4.16,2.65-6.43,4.26-2.37,1.7-3.78,1.89-4.26.66,0-.66.76-1.51,2.37-2.27,2.27-.57,3.6-1.42,3.88-2.37-.09-.95-.47-1.42-1.04-1.51-2.55.57-5.68.47-9.08-.1-.38-.09-.57-.38-.57-.95.09-.57.66-.85,1.8-.76l7.29.28c1.7-.09,2.84-.57,3.12-1.51.38-.95.38-1.89.09-2.65-2.55.76-5.11.95-7.85.76-1.89,0-3.59.19-5.2.66-1.7.47-2.55,1.61-2.55,3.12.19,1.42.95,2.37,2.27,2.84,1.32.47,2.65.85,3.69.95.66,0,.76.28.38.76-1.04.95-1.8,2.08-2.08,3.22-.28,2.46.85,3.88,3.59,4.07,1.42,0,2.74-.47,3.78-1.51l5.39-3.78c1.61-1.23,2.93-1.99,3.88-2.46.38,0,.57.19.57.66-.57,1.89-.66,3.5-.38,5.11.66,1.32,1.7,1.7,3.22,1.04l1.99-2.08,2.37-3.5,1.32-1.7c.47-.76.95-1.04,1.42-.95.38.38.47.95.28,1.7-.38,1.7-.57,3.31-.38,5.01.19,1.61,1.7,2.46,4.64,2.18,1.7-.38,2.18-1.04,1.51-2.18-.76-.38-1.42-.47-2.27-.38-.66-.57-.57-2.27.38-5.11,1.04-2.74,1.04-4.73.19-5.87Z"/>
  <path class="cls-1" d="M27.07,45.59l1.51-.47,3.03-1.32c.57-.38.95-.09.76.57-.38,1.51-1.32,4.07-2.93,7.57l-3.59,7.76c-1.32,2.55-2.18,4.35-2.55,5.39.19.95,1.14,1.32,2.84,1.32,1.42-.47,2.18-.85,2.18-1.23l4.73-11.16c2.08-5.49,3.41-9.27,4.07-11.45.28-1.04,1.04-1.51,1.89-1.61,1.51-.57,2.93-.95,4.35-1.14,2.55-.28,3.97-1.13,3.97-2.65.09-1.32,0-1.99-.28-1.99l-3.31.95-4.16,1.32c-.85.1-1.23-.19-.95-.66l.57-2.18c.95-4.45,1.32-7.57.95-9.37-.38-1.8-.85-2.93-1.8-3.5-2.37-1.61-6.53-1.04-12.49,1.61-5.96,2.55-11.73,6.15-17.5,10.5-1.8,1.51-3.12,2.74-3.88,3.5-.76.76-.57,1.7.57,2.93,1.04.95,1.89,1.23,2.46,1.04l.95-.47,4.26-3.88c1.7-1.7,3.31-3.03,4.82-4.16l6.91-4.92c2.55-1.7,5.01-2.84,7.57-3.5,3.69-1.04,5.2.28,4.45,4.16-.19,1.89-.66,4.16-1.51,6.72l-1.32,4.26-2.27.95-2.93,1.32c-1.14-.1-1.89.57-2.08,2.27,0,1.04.19,1.51.76,1.51Z"/>
  <path class="cls-1" d="M101.62,19.76c-1.04-.19-1.99-.09-2.74.38-.76.85-1.89,3.78-3.59,8.7-1.61,4.92-3.03,9.46-4.07,13.43l-.95,5.01-.47,3.5c-.76,2.55-2.08,3.78-3.88,3.59-1.89-.95-2.46-2.74-1.7-5.49.28-1.32.85-2.37,1.7-3.31.95-.95,1.89-1.32,3.03-1.04,1.14.19,1.7.1,1.8-.66-.38-1.04-.76-1.51-1.04-1.51-2.27-1.04-4.16-.85-5.96.47-1.61,1.32-2.74,3.31-3.31,5.96-.47,3.03,0,5.39,1.51,7,1.61,1.7,3.97,1.7,6.91.19.85-.38,1.51-.28,2.08.28.66.66,1.89.85,3.78.95,3.41-.76,4.45-1.99,3.22-3.69l-1.42.1c-.57.28-1.23.47-1.99.47-1.7-.57-1.89-2.74-.95-6.62,1.04-3.78,2.18-7.47,3.41-11.07,1.89-5.3,3.78-10.12,5.58-14.29.47-1.42.09-2.18-.95-2.37Z"/>
  <path class="cls-1" d="M126.81,38.63c.52,0,.97.18,1.33.55.37.37.55.81.55,1.33s-.18.97-.55,1.34c-.37.37-.81.55-1.33.55s-.97-.18-1.33-.55c-.36-.37-.55-.82-.55-1.34s.18-.96.55-1.33c.37-.37.81-.55,1.33-.55ZM129,40.51c0-.6-.21-1.12-.64-1.54-.43-.42-.94-.64-1.55-.64s-1.12.21-1.54.64c-.43.43-.64.94-.64,1.54s.21,1.12.64,1.55c.42.43.94.64,1.55.64s1.12-.21,1.55-.64c.43-.43.64-.95.64-1.55ZM127.39,40.04c0,.18-.08.31-.25.37-.09.04-.23.05-.41.05h-.39v-.86h.36c.24,0,.41.03.52.09.11.06.16.17.16.35ZM125.93,39.31v2.4h.42v-.94h.33c.23,0,.38.03.47.08.15.09.23.27.23.55v.27s.01.02.01.03c0,0,0,.02,0,.02h.4l-.02-.03s-.02-.06-.02-.13c0-.06,0-.12,0-.18v-.18c0-.12-.04-.25-.13-.37-.09-.13-.22-.2-.41-.23.15-.02.26-.06.35-.12.16-.1.23-.26.23-.47,0-.3-.12-.5-.37-.61-.14-.06-.36-.09-.66-.09h-.84Z"/>
</svg>