<?xml version="1.0" encoding="UTF-8"?>
<svg id="Layer_1" xmlns="http://www.w3.org/2000/svg" xmlns:xlink="http://www.w3.org/1999/xlink" viewBox="0 0 140 90">
  <defs>
    <style>
      .cls-1 {
        fill: none;
      }

      .cls-2 {
        fill: #b2ff33;
      }

      .cls-3 {
        clip-path: url(#clippath-1);
      }

      .cls-4 {
        clip-path: url(#clippath);
      }
    </style>
    <clipPath id="clippath">
      <rect class="cls-1" x="1.5" y="19.96" width="137" height="50.09"/>
    </clipPath>
    <clipPath id="clippath-1">
      <rect class="cls-1" x="1.5" y="19.96" width="137" height="50.09"/>
    </clipPath>
    <clipPath id="clippath-2">
      <rect class="cls-1" x="93" y="-54" width="272.67" height="204.5"/>
    </clipPath>
  </defs>
  <g class="cls-4">
    <g class="cls-3">
      <path d="M125.58,70.04H1.5L6.83,26.68c.47-3.84,3.73-6.72,7.59-6.72h124.08l-5.32,43.37c-.47,3.84-3.73,6.72-7.6,6.72"/>
      <path class="cls-2" d="M101.87,53.35l-.3,2.43-13.26-7.97-.68,5.53h-7.06l1.34-10.89h11.62l.25-2.05h-11.63l.46-3.76h14.79c2.19,0,3.83,2.16,3.76,4.02-.06,1.72-.94,3.2-2.31,4.17-.93.65-2.62,1.13-2.62,1.13l6.14,3.13,1.53-12.45h17.88l-.46,3.76h-9.63l-.25,2.05h9.63l-.51,4.14h-9.63s-.27,2.22-.27,2.22h9.63l-.56,4.52h-17.88ZM72.1,36.65l-1.41,11.53h-2.18l1.41-11.53h-8.23l-1.07,8.71c-.59,5.44,2.69,8.71,8.01,8.71h.59c6.03-.28,9.5-4.64,10.14-8.71l1.07-8.71h-8.32ZM48.15,42.46l.71-5.81h-8.08l-2.05,16.7h8.08l.72-5.85h2.53l-.72,5.85h8.09l2.05-16.7h-8.09l-.71,5.81h-2.53ZM32.28,53.35c3.68,0,5.72-2.84,5.74-5.54.01-1.45-.53-2.43-2.17-3.22-1.53-.73-7.12-3.1-9.65-4.18h12.07l.46-3.76h-14.32c-2.7,0-4.83,2.37-4.83,4.97,0,1.5.73,2.98,2.47,3.84l8.18,3.36h-11.48l-.56,4.52h14.08Z"/>
    </g>
  </g>
</svg>