<?xml version="1.0" encoding="UTF-8"?>
<svg id="Layer_1" xmlns="http://www.w3.org/2000/svg" viewBox="0 0 140 90">
  <defs>
    <style>
      .cls-1 {
        fill: #231f20;
      }
    </style>
  </defs>
  <path class="cls-1" d="M16.81,32.73c-8.17,0-14.81,6.63-14.81,14.81s6.63,14.81,14.81,14.81,14.81-6.63,14.81-14.81-6.63-14.81-14.81-14.81ZM16.81,60.67c-7.25,0-13.13-5.89-13.13-13.13s5.88-13.14,13.13-13.14,13.14,5.89,13.14,13.14-5.88,13.13-13.14,13.13Z"/>
  <polygon class="cls-1" points="115.38 44.52 110.44 44.52 110.44 34.65 105.93 34.65 105.93 60.42 110.44 60.42 110.44 49.11 115.38 49.11 115.38 60.42 120 60.42 120 34.65 115.38 34.65 115.38 44.52"/>
  <polygon class="cls-1" points="45.9 34.65 42.5 44.69 39.41 34.65 34.91 34.65 39.92 50.45 39.92 60.42 44.93 60.42 44.93 49.94 50.12 34.65 45.9 34.65"/>
  <polygon class="cls-1" points="76.28 46.91 73.77 34.65 66.73 34.65 66.73 60.42 70.77 60.42 70.77 40.99 74.21 57.88 77.99 57.88 81.05 40.72 81.05 60.42 85.78 60.42 85.78 34.65 78.44 34.65 76.28 46.91"/>
  <path class="cls-1" d="M133.75,34.65h-6.98l-4.71,25.78h4.17l1-6h5.2l.97,6h4.6l-4.25-25.78ZM127.95,50.12l1.92-11.53,1.86,11.53h-3.79Z"/>
  <path class="cls-1" d="M99.54,34.65h-6.98l-4.71,25.78h4.18l.99-6h5.2l.96,6h4.6l-4.25-25.78ZM93.74,50.12l1.92-11.53,1.86,11.53h-3.78Z"/>
  <path class="cls-1" d="M60.33,34.65h-6.98l-4.72,25.78h4.18l.99-6h5.2l.97,6h4.6l-4.25-25.78ZM54.54,50.12l1.92-11.53,1.86,11.53h-3.78Z"/>
  <path class="cls-1" d="M27.57,53.5l-2.15-2.51s-.06-.06-.09-.08c-.11-.06-.24-.06-.35-.01-.33.15-.72.15-1.06-.04-.3-.17-.49-.46-.56-.78-.14-.8-.63-1.54-1.4-1.98l-.96-.55,5.47-3.16-.68-1.17-6.15,3.55-.74-.43v-.85l6.15-3.55-.68-1.18-5.47,3.16v-1.11c0-.88-.4-1.68-1.02-2.21-.24-.21-.4-.52-.4-.87,0-.39.2-.73.49-.94.1-.06.16-.18.16-.3,0-.04,0-.08-.02-.12l-1.09-3.12c-.03-.09-.12-.15-.22-.15s-.19.06-.22.15l-1.1,3.12s-.01.08-.01.12c0,.13.06.24.15.3h0c.3.21.49.55.49.94,0,.35-.15.66-.4.87-.62.53-1.01,1.33-1.01,2.21v1.11l-5.48-3.16-.68,1.18,6.15,3.55v.86l-.74.43-6.15-3.55-.68,1.17,5.48,3.16-.96.55c-.77.44-1.26,1.18-1.4,1.98-.06.32-.26.61-.55.78-.35.2-.74.2-1.07.04-.11-.05-.24-.05-.35.01-.03.02-.07.05-.09.08l-2.15,2.51c-.06.07-.07.17-.02.27.05.08.15.13.24.1l3.25-.6s.08-.03.11-.04c.11-.07.18-.17.19-.3.03-.36.23-.7.57-.9.3-.17.65-.19.95-.08.77.27,1.65.22,2.42-.23l.97-.55v6.32h1.35v-7.1l.74-.43.74.43v7.1h1.36v-6.32l.96.55c.77.44,1.64.5,2.42.23.3-.11.65-.09.95.08.34.2.54.54.57.9,0,.12.07.23.19.3.04.02.08.04.11.04l3.25.6c.09.02.19-.02.24-.1.05-.1.04-.2-.02-.27ZM14.72,49.59l-1.81,1.04c-.35.21-.81.08-1.01-.27-.2-.36-.08-.81.27-1.01l1.81-1.05.74.43v.85ZM16.07,42.61c0-.41.33-.74.74-.74s.74.33.74.74v2.08l-.74.43-.74-.43v-2.08ZM17.66,48.02l-.85.49-.85-.49v-.98l.85-.49.85.49v.98ZM21.72,50.37c-.21.35-.66.47-1.01.27l-1.8-1.04v-.85l.74-.43,1.8,1.05c.36.2.48.65.27,1.01Z"/>
</svg>